<?xml version="1.0" encoding="UTF-8" standalone="no"?>
<!DOCTYPE svg PUBLIC "-//W3C//DTD SVG 1.1//EN"
 "http://www.w3.org/Graphics/SVG/1.1/DTD/svg11.dtd">
<!-- Generated by graphviz version 2.47.3 (20210619.1520)
 -->
<!-- Title: dependencies Pages: 1 -->
<svg width="190pt" height="247pt"
 viewBox="0.00 0.00 190.00 246.80" xmlns="http://www.w3.org/2000/svg" xmlns:xlink="http://www.w3.org/1999/xlink">
<g id="graph0" class="graph" transform="scale(1 1) rotate(0) translate(4 242.8)">
<title>dependencies</title>
<polygon fill="white" stroke="transparent" points="-4,4 -4,-242.8 186,-242.8 186,4 -4,4"/>
<text text-anchor="middle" x="91" y="-8.2" font-family="sans-serif" font-size="14.00">dependencies</text>
<g id="clust1" class="cluster">
<title>cluster_ExampleModule</title>
<polygon fill="none" stroke="black" stroke-dasharray="1,5" points="8,-32.8 8,-230.8 174,-230.8 174,-32.8 8,-32.8"/>
</g>
<g id="clust2" class="cluster">
<title>cluster_ExampleModule_declarations</title>
<polygon fill="none" stroke="black" points="17,-40.8 17,-92.8 165,-92.8 165,-40.8 17,-40.8"/>
</g>
<g id="clust5" class="cluster">
<title>cluster_ExampleModule_exports</title>
<polygon fill="none" stroke="black" points="16,-170.8 16,-222.8 166,-222.8 166,-170.8 16,-170.8"/>
</g>
<!-- ExampleComponent -->
<g id="node1" class="node">
<title>ExampleComponent</title>
<polygon fill="#ffffb3" stroke="black" points="156.6,-84.8 25.4,-84.8 25.4,-48.8 156.6,-48.8 156.6,-84.8"/>
<text text-anchor="middle" x="91" y="-62.6" font-family="Times,serif" font-size="14.00">ExampleComponent</text>
</g>
<!-- ExampleModule -->
<g id="node2" class="node">
<title>ExampleModule</title>
<polygon fill="#8dd3c7" stroke="black" points="145.81,-149.8 142.81,-153.8 121.81,-153.8 118.81,-149.8 36.19,-149.8 36.19,-113.8 145.81,-113.8 145.81,-149.8"/>
<text text-anchor="middle" x="91" y="-127.6" font-family="Times,serif" font-size="14.00">ExampleModule</text>
</g>
<!-- ExampleComponent&#45;&gt;ExampleModule -->
<g id="edge1" class="edge">
<title>ExampleComponent&#45;&gt;ExampleModule</title>
<path fill="none" stroke="black" d="M91,-84.91C91,-84.91 91,-103.79 91,-103.79"/>
<polygon fill="black" stroke="black" points="87.5,-103.79 91,-113.79 94.5,-103.79 87.5,-103.79"/>
</g>
<!-- ExampleComponent  -->
<g id="node3" class="node">
<title>ExampleComponent </title>
<polygon fill="#fb8072" stroke="black" points="158.1,-214.8 23.9,-214.8 23.9,-178.8 158.1,-178.8 158.1,-214.8"/>
<text text-anchor="middle" x="91" y="-192.6" font-family="Times,serif" font-size="14.00">ExampleComponent </text>
</g>
<!-- ExampleModule&#45;&gt;ExampleComponent  -->
<g id="edge2" class="edge">
<title>ExampleModule&#45;&gt;ExampleComponent </title>
<path fill="none" stroke="black" stroke-dasharray="5,2" d="M91,-149.91C91,-149.91 91,-168.79 91,-168.79"/>
<polygon fill="black" stroke="black" points="87.5,-168.79 91,-178.79 94.5,-168.79 87.5,-168.79"/>
</g>
</g>
</svg>
